<svg width="52" height="50" viewBox="0 0 52 50" fill="none" xmlns="http://www.w3.org/2000/svg">
<g clip-path="url(#clip0_215_163)">
<path d="M42.9104 0H8.71038C4.01597 0 0.210388 3.80558 0.210388 8.5V41.42C0.210388 46.1144 4.01597 49.92 8.71038 49.92H42.9104C47.6048 49.92 51.4104 46.1144 51.4104 41.42V8.5C51.4104 3.80558 47.6048 0 42.9104 0Z" fill="#001E36"/>
<path d="M11.7413 35.0068V13.0592C11.7413 12.8992 11.8101 12.8188 11.9475 12.8188L12.1649 12.8182L12.5365 12.8142L13.0529 12.804L14.7829 12.7674L16.6379 12.733C17.2903 12.7218 17.9371 12.7158 18.5783 12.7158C20.3183 12.7158 21.7837 12.9334 22.9747 13.3684C24.0491 13.7318 25.0288 14.3302 25.8427 15.12C26.5327 15.8047 27.0659 16.6309 27.4055 17.5416C27.7268 18.4279 27.8896 19.3637 27.8865 20.3064C27.8865 22.1386 27.4627 23.6498 26.6155 24.8402C25.7869 26.0016 24.6311 26.8897 23.2955 27.3914L23.1809 27.4334C21.7863 27.9536 20.2419 28.1416 18.5481 28.1534L18.2849 28.1542L17.8943 28.1522L17.6973 28.1494L17.4777 28.1442L17.3453 28.139L17.2649 28.1348L17.0671 28.1276L16.8253 28.1226L16.4613 28.12L16.3803 28.1198V34.9724C16.3864 35.0144 16.3825 35.0573 16.3691 35.0975C16.3557 35.1378 16.3331 35.1744 16.3031 35.2044C16.2731 35.2344 16.2365 35.257 16.1962 35.2704C16.156 35.2838 16.1131 35.2876 16.0711 35.2816H11.9819C11.8213 35.2816 11.7413 35.1904 11.7413 35.0068ZM16.3805 16.9404V24.0988C16.6546 24.1209 16.9295 24.1324 17.2045 24.1332H18.3381C19.1197 24.1306 19.8967 24.0142 20.6447 23.7878L20.7939 23.7412C21.4745 23.5391 22.0825 23.1456 22.5457 22.6076C22.9761 22.1 23.1991 21.4006 23.2145 20.5092L23.2155 20.4094C23.2335 19.745 23.0607 19.0894 22.7173 18.5204C22.3564 17.9701 21.8348 17.5444 21.2233 17.301C20.4249 16.9907 19.5721 16.8447 18.7159 16.8718L18.2803 16.873L18.0055 16.8754L17.7433 16.8788L17.3733 16.886L17.1033 16.8936L16.9631 16.8988L16.7757 16.9076L16.6161 16.9174L16.5251 16.9246L16.4465 16.9322L16.4119 16.9362L16.3805 16.9404ZM41.1665 22.7972C40.5674 22.4893 39.9318 22.258 39.2749 22.1088L39.1229 22.076C38.4002 21.9102 37.6624 21.8188 36.9211 21.8034L36.7359 21.8012C36.3013 21.7894 35.8674 21.8415 35.4479 21.9558C35.1809 22.0152 34.9435 22.1673 34.7779 22.385C34.666 22.5592 34.6064 22.7619 34.6063 22.969C34.6126 23.1698 34.685 23.363 34.8123 23.5184C34.9946 23.7316 35.2138 23.9103 35.4593 24.0458L35.5337 24.0852C36.0234 24.3489 36.528 24.584 37.0449 24.7892C38.1976 25.1751 39.2991 25.6999 40.3249 26.352C41.0239 26.7931 41.6023 27.401 42.0081 28.121C42.3493 28.8027 42.5202 29.5569 42.5061 30.319C42.5267 31.3256 42.239 32.3144 41.6817 33.1528C41.0851 34.0038 40.2565 34.6654 39.2945 35.0588C38.2871 35.5016 37.0499 35.7302 35.5831 35.7452L35.4307 35.746C34.5214 35.7552 33.6134 35.6757 32.7195 35.5084L32.5283 35.4712C31.7757 35.3332 31.0432 35.1024 30.3473 34.7842C30.2774 34.7481 30.2183 34.6941 30.1761 34.6277C30.1338 34.5613 30.11 34.4849 30.1069 34.4062V30.6626C30.1028 30.6263 30.1086 30.5895 30.1238 30.5562C30.1389 30.5229 30.1628 30.4944 30.1929 30.4736C30.2224 30.457 30.2563 30.4497 30.29 30.4528C30.3237 30.4558 30.3557 30.4691 30.3817 30.4908C31.2034 30.9754 32.0957 31.3288 33.0263 31.5384C33.8466 31.7441 34.6881 31.8536 35.5337 31.8648C36.3349 31.8648 36.9245 31.7616 37.3025 31.5556C37.4732 31.4775 37.6176 31.3516 37.7182 31.1931C37.8188 31.0346 37.8713 30.8503 37.8693 30.6626C37.8693 30.3654 37.6975 30.079 37.3541 29.804C37.2101 29.6888 37.0035 29.5634 36.7347 29.428L36.6061 29.3648L36.4689 29.3002L36.3969 29.2674L36.2461 29.2006C36.22 29.1892 36.1938 29.1779 36.1675 29.1666L36.0035 29.0978L35.9181 29.0628L35.7409 28.9918L35.6489 28.9558L35.4583 28.8824L35.2589 28.8078C34.1804 28.4325 33.1578 27.9125 32.2191 27.2622C31.5478 26.7953 30.995 26.1778 30.6049 25.459C30.2672 24.7822 30.0964 24.0344 30.1069 23.278C30.105 22.3693 30.3546 21.4777 30.8281 20.702C31.3681 19.848 32.1433 19.168 33.0607 18.7444C34.0681 18.241 35.3273 17.989 36.8387 17.9886C37.7239 17.9815 38.6083 18.0447 39.4835 18.1776C40.1173 18.258 40.7369 18.4256 41.3247 18.6756C41.4193 18.7028 41.4955 18.7726 41.5307 18.8646C41.5541 18.9484 41.5655 19.035 41.5651 19.1222V22.5912C41.5701 22.6732 41.5307 22.7518 41.4621 22.7972C41.4162 22.8201 41.3656 22.8319 41.3143 22.8319C41.263 22.8319 41.2125 22.8201 41.1665 22.7972Z" fill="#31A8FF"/>
</g>
<defs>
<clipPath id="clip0_215_163">
<rect width="51.2083" height="50" fill="white" transform="translate(0.208374)"/>
</clipPath>
</defs>
</svg>
