<svg width="52" height="50" viewBox="0 0 52 50" fill="none" xmlns="http://www.w3.org/2000/svg">
<g clip-path="url(#clip0_215_160)">
<path d="M42.702 0H8.50201C3.80759 0 0.00201416 3.80558 0.00201416 8.5V41.42C0.00201416 46.1144 3.80759 49.92 8.50201 49.92H42.702C47.3964 49.92 51.202 46.1144 51.202 41.42V8.5C51.202 3.80558 47.3964 0 42.702 0Z" fill="#330000"/>
<path d="M24.815 29.9578H16.881L15.2666 34.9724C15.2446 35.0639 15.1914 35.1448 15.1162 35.2013C15.0409 35.2577 14.9483 35.2861 14.8544 35.2816H10.8358C10.6068 35.2816 10.5266 35.1556 10.5954 34.9036L17.4648 15.12C17.5334 14.914 17.6022 14.6794 17.6708 14.416C17.7608 13.9576 17.8068 13.492 17.8082 13.025C17.8035 12.9923 17.8065 12.959 17.8169 12.9277C17.8273 12.8964 17.8449 12.868 17.8682 12.8446C17.8916 12.8213 17.92 12.8037 17.9513 12.7932C17.9826 12.7828 18.0159 12.7798 18.0486 12.7844H23.5098C23.6698 12.7844 23.7614 12.8418 23.7846 12.9564L31.5812 34.938C31.65 35.1672 31.5812 35.2818 31.3752 35.2816H26.91C26.8333 35.2901 26.7561 35.2704 26.6929 35.2262C26.6297 35.1819 26.5848 35.1162 26.5666 35.0412L24.815 29.9578ZM18.1174 25.6302H23.5442L23.4668 25.3748L23.3426 24.9704L23.254 24.6864L23.1126 24.2392L22.812 23.2978L22.5476 22.4632L21.861 20.2892C21.6901 19.7488 21.5261 19.2062 21.369 18.6616L21.2434 18.2196L21.0966 17.697L20.8726 16.887L20.8306 16.7344H20.7964C20.6245 17.5588 20.4152 18.375 20.1692 19.1804L19.6596 20.8196L19.3792 21.7252L19.0962 22.642C19.045 22.8076 18.9942 22.9714 18.9432 23.1332L18.7912 23.6128L18.64 24.0812L18.4896 24.538L18.34 24.9834C18.2904 25.13 18.2408 25.2746 18.1914 25.4174L18.1174 25.6302ZM36.2176 16.4252C35.8673 16.4393 35.5179 16.3792 35.1924 16.249C34.8669 16.1188 34.5725 15.9214 34.3286 15.6696C34.0853 15.4069 33.8963 15.0987 33.7725 14.7627C33.6487 14.4267 33.5925 14.0696 33.6072 13.7118C33.5947 13.3576 33.6571 13.0048 33.7903 12.6764C33.9234 12.3479 34.1244 12.0513 34.38 11.8058C34.873 11.3325 35.5296 11.0677 36.213 11.0664L36.2862 11.0672C37.1106 11.0672 37.7576 11.3132 38.227 11.8056C38.4639 12.0614 38.648 12.3615 38.7688 12.6886C38.8896 13.0157 38.9447 13.3634 38.931 13.7118C38.9454 14.071 38.8874 14.4294 38.7606 14.7658C38.6337 15.1021 38.4406 15.4096 38.1926 15.6698C37.9422 15.9166 37.645 16.1108 37.3184 16.241C36.9918 16.3712 36.6425 16.4347 36.291 16.4278L36.2176 16.4252ZM33.8476 34.938V18.5204C33.8476 18.3144 33.9388 18.2112 34.1224 18.2112H38.3472C38.5302 18.2112 38.6218 18.3142 38.622 18.5204V34.938C38.622 35.1672 38.5304 35.2818 38.3472 35.2816H34.1568C33.9616 35.2816 33.8588 35.1788 33.8486 34.9732L33.8476 34.938Z" fill="#FF9A00"/>
</g>
<defs>
<clipPath id="clip0_215_160">
<rect width="51.2083" height="50" fill="white"/>
</clipPath>
</defs>
</svg>
