<svg width="52" height="50" viewBox="0 0 52 50" fill="none" xmlns="http://www.w3.org/2000/svg">
<g clip-path="url(#clip0_215_169)">
<path d="M43.1187 0H8.91876C4.22434 0 0.418762 3.80558 0.418762 8.5V41.42C0.418762 46.1144 4.22434 49.92 8.91876 49.92H43.1187C47.8132 49.92 51.6187 46.1144 51.6187 41.42V8.5C51.6187 3.80558 47.8132 0 43.1187 0Z" fill="#001E36"/>
<path d="M27.3095 35.282H13.7769C13.5477 35.282 13.4333 35.156 13.4335 34.904V13.0942C13.4275 13.0522 13.4314 13.0094 13.4448 12.9691C13.4582 12.9289 13.4808 12.8923 13.5107 12.8623C13.5407 12.8323 13.5773 12.8097 13.6175 12.7963C13.6577 12.7828 13.7006 12.779 13.7425 12.785H17.9329C17.9656 12.7804 17.9989 12.7834 18.0302 12.7939C18.0615 12.8043 18.0899 12.8219 18.1132 12.8453C18.1365 12.8686 18.1541 12.897 18.1645 12.9283C18.175 12.9596 18.178 12.9929 18.1733 13.0256V30.9546H28.0307C28.2367 30.9546 28.3169 31.0576 28.2713 31.2636L27.6529 34.973C27.6515 35.0236 27.6383 35.0732 27.6145 35.1179C27.5906 35.1626 27.5568 35.2011 27.5155 35.2306C27.4519 35.2637 27.3813 35.2813 27.3095 35.2822V35.282ZM30.7095 18.2116H34.4533C34.6621 18.2136 34.8445 18.3536 34.8997 18.5552C34.9815 18.7056 35.0395 18.8678 35.0717 19.036C35.1195 19.257 35.1537 19.4806 35.1745 19.7058C35.1971 19.9462 35.2085 20.2038 35.2089 20.4786C35.851 19.731 36.6252 19.108 37.4929 18.641C38.4677 18.1139 39.5622 17.8477 40.6701 17.8682C40.7121 17.8622 40.7549 17.866 40.7952 17.8795C40.8354 17.8929 40.872 17.9155 40.9019 17.9455C40.9319 17.9755 40.9545 18.0121 40.9679 18.0523C40.9813 18.0926 40.9851 18.1354 40.9791 18.1774V22.3334C40.9791 22.4938 40.8647 22.5738 40.6357 22.5738C39.2522 22.4881 37.8682 22.7354 36.5999 23.295C36.1689 23.4814 35.7782 23.7497 35.4493 24.085V34.973C35.4493 35.179 35.3577 35.282 35.1745 35.282H31.0185C30.9719 35.2887 30.9243 35.2844 30.8796 35.2695C30.8349 35.2546 30.7943 35.2295 30.7609 35.1962C30.7276 35.1628 30.7025 35.1222 30.6876 35.0775C30.6727 35.0328 30.6684 34.9852 30.6751 34.9386V23.1232C30.6751 22.8356 30.6733 22.5384 30.6695 22.2318L30.6625 21.765C30.6611 21.686 30.6597 21.6064 30.6579 21.5262C30.6492 21.1085 30.6373 20.691 30.6223 20.2736L30.6063 19.8604C30.5912 19.3885 30.5453 18.9181 30.4691 18.4522C30.4611 18.421 30.4608 18.3884 30.4682 18.3571C30.4756 18.3258 30.4906 18.2968 30.5118 18.2726C30.533 18.2484 30.5597 18.2298 30.5898 18.2183C30.6198 18.2068 30.6522 18.2029 30.6841 18.2068L30.7095 18.2116Z" fill="#31A8FF"/>
</g>
<defs>
<clipPath id="clip0_215_169">
<rect width="51.2083" height="50" fill="white" transform="translate(0.416748)"/>
</clipPath>
</defs>
</svg>
