<svg width="52" height="50" viewBox="0 0 52 50" fill="none" xmlns="http://www.w3.org/2000/svg">
<g clip-path="url(#clip0_215_204)">
<path d="M9.07075 0H42.1376C47.1508 0 51.2042 4.0534 51.2042 9.0666V40.8534C51.2042 45.8666 47.1508 49.92 42.1376 49.92H9.07075C4.05755 49.92 0.00415039 45.8666 0.00415039 40.8534V9.0666C0.00415039 4.0534 4.05755 0 9.07075 0Z" fill="#00005B"/>
<path d="M12.1642 35.008V13.056C12.1642 12.9066 12.2282 12.8214 12.3776 12.8214L12.6872 12.8208L12.9268 12.8188L13.0958 12.8156L13.2758 12.811L13.4692 12.8042L13.5722 12.8C13.7642 12.792 13.9592 12.787 14.1582 12.7828L14.7692 12.77C14.8386 12.7684 14.9088 12.7666 14.9794 12.7644L15.1934 12.7574C15.3854 12.7502 15.5822 12.7454 15.7838 12.7414L16.4024 12.7304L16.8306 12.721L17.0496 12.7146C17.4904 12.7006 17.9218 12.6958 18.35 12.6942L18.9908 12.6934C20.7402 12.6934 22.1908 12.9066 23.3856 13.3546C24.4565 13.7183 25.433 14.3159 26.2442 15.104C26.9316 15.7936 27.4628 16.623 27.8016 17.536C28.1216 18.432 28.2922 19.3494 28.2922 20.3094C28.2922 22.144 27.8656 23.6586 27.0122 24.8534C26.1588 26.048 24.9642 26.944 23.5776 27.456C22.1752 27.9716 20.6334 28.168 18.952 28.1806H18.3422L18.1048 28.1782L17.9526 28.1746L17.863 28.1708L17.7826 28.166L17.7108 28.16C17.6647 28.1555 17.6186 28.152 17.5724 28.1496L17.4684 28.145L17.3544 28.142L17.1642 28.1394L16.7936 28.1386V34.9866C16.8148 35.136 16.7082 35.264 16.5588 35.2854H12.4202C12.2496 35.2854 12.1642 35.2 12.1642 35.008ZM16.8148 16.9386V24.1066L17.0656 24.1246C17.259 24.1394 17.4528 24.1476 17.6468 24.1494H18.7776C19.6096 24.1494 20.4416 24.0214 21.2308 23.7654C21.9136 23.5734 22.5108 23.168 22.9802 22.6346C23.4282 22.1014 23.6416 21.376 23.6416 20.4374C23.6616 19.7707 23.4914 19.112 23.1508 18.5386C22.8034 18.0072 22.3186 17.5932 21.7344 17.353L21.6576 17.3226C20.8682 17.0026 20.0148 16.8746 19.1402 16.896L18.647 16.8966L18.4152 16.898L18.1938 16.901L17.9836 16.9058C17.8812 16.9086 17.783 16.9124 17.6896 16.9174C17.6437 16.9151 17.5979 16.9132 17.552 16.9118L17.4242 16.909C17.4042 16.9087 17.3842 16.9086 17.3642 16.9086L17.251 16.9092L17.1482 16.912L17.1006 16.914L17.0132 16.919L16.9364 16.925L16.9018 16.9282L16.8412 16.9352L16.8148 16.9386ZM31.2788 18.176H35.0122C35.2136 18.176 35.3772 18.3092 35.4486 18.4858L35.4602 18.5174C35.5242 18.688 35.5668 18.8586 35.5882 19.0506C35.6308 19.264 35.6736 19.4986 35.6948 19.712L35.7128 19.9184C35.7268 20.0946 35.7376 20.282 35.7376 20.48C36.3485 19.7666 37.0812 19.1674 37.9016 18.7102L38.0202 18.6454C39.0016 18.0906 40.1322 17.8134 41.2628 17.8134C41.4122 17.792 41.5402 17.8986 41.5616 18.048V22.2934C41.5616 22.464 41.4548 22.528 41.2202 22.528C40.5034 22.508 39.7682 22.5626 39.0662 22.7086L38.9162 22.7414C38.2976 22.8694 37.7002 23.0614 37.1242 23.3174C36.7188 23.5094 36.3348 23.7654 36.0362 24.1066V34.9866C36.0362 35.2 35.9508 35.2854 35.7588 35.2854H31.5562C31.3856 35.3066 31.2362 35.2 31.2148 35.0294V23.1254C31.2148 22.6134 31.2148 22.08 31.1936 21.5254L31.1808 21.1094L31.1636 20.2774C31.1602 20.1386 31.1562 20 31.1508 19.8614C31.1508 19.3706 31.1082 18.9014 31.0656 18.4106C31.0442 18.304 31.1082 18.1974 31.2148 18.176C31.2148 18.1578 31.2462 18.1552 31.2686 18.168L31.2788 18.176Z" fill="#9999FF"/>
</g>
<defs>
<clipPath id="clip0_215_204">
<rect width="51.2083" height="50" fill="white"/>
</clipPath>
</defs>
</svg>
