<svg width="44" height="62" viewBox="0 0 44 62" fill="none" xmlns="http://www.w3.org/2000/svg">
<g clip-path="url(#clip0_215_178)">
<path d="M21.9616 61.8435L4.06883 56.8762L0.0814209 12.1538H43.8953L39.9038 56.8694L21.9616 61.8435V61.8435Z" fill="#264DE4"/>
<path d="M36.4865 54.0221L39.8974 15.8105H21.9883V58.0415L36.4865 54.0221V54.0221Z" fill="#2965F1"/>
<path d="M9.22238 32.3972L9.71391 37.8822H21.9884V32.3972H9.22238ZM8.2345 21.2954L8.73307 26.7804H21.9884V21.2954H8.2345V21.2954ZM21.9884 46.6424L21.9643 46.6488L15.8557 44.9993L15.4651 40.6248H9.95899L10.7274 49.2372L21.9631 52.356L21.9884 52.3492V46.6424Z" fill="#EBEBEB"/>
<path d="M10.3928 0H17.0359V2.77815H13.171V5.5563H17.0363V8.33428H10.3928V0ZM18.3647 0H25.008V2.41577H21.1429V2.89889H25.008V8.45518H18.3649V5.91834H22.23V5.43522H18.3645V0H18.3647ZM26.3368 0H32.9801V2.41577H29.1149V2.89889H32.9801V8.45518H26.3368V5.91834H30.2019V5.43522H26.337V0H26.3368Z" fill="black"/>
<path d="M34.7193 32.3972L35.7094 21.2954H21.9694V26.7804H29.6983L29.1992 32.3972H21.9694V37.8822H28.7236L28.0868 44.9959L21.9692 46.6471V52.3535L33.2139 49.2371L33.2963 48.3104L34.5855 33.8701L34.7193 32.3972V32.3972Z" fill="white"/>
</g>
<defs>
<clipPath id="clip0_215_178">
<rect width="43.9683" height="62" fill="white" transform="translate(0.00415039)"/>
</clipPath>
</defs>
</svg>
