<svg width="43" height="60" viewBox="0 0 43 60" fill="none" xmlns="http://www.w3.org/2000/svg">
<g clip-path="url(#clip0_215_172)">
<path d="M42.4753 11.7617L38.6125 55.0348L21.2491 59.8485L3.93349 55.0415L0.074707 11.7617H42.4753Z" fill="#E44D26"/>
<path d="M21.275 56.1689L35.3056 52.2792L38.6064 15.3003H21.275V56.1689Z" fill="#F16529"/>
<path d="M13.7659 25.9165H21.275V20.6084H7.96484L8.09182 22.0324L9.39653 36.6601H21.275V31.3521H14.2511L13.7659 25.9165V25.9165ZM14.9622 39.3143H9.63371L10.3773 47.6488L21.2506 50.6671L21.275 50.6604V45.1378L21.2518 45.1439L15.3402 43.5477L14.9622 39.3143Z" fill="#EBEBEB"/>
<path d="M4.01965 0H6.71716V2.6651H9.18481V0H11.8825V8.07058H9.18497V5.36809H6.71733V8.07058H4.01982V0H4.01965ZM15.4296 2.6764H13.0552V0H20.5035V2.6764H18.1276V8.07058H15.4301V2.6764H15.43H15.4296ZM21.6856 0H24.4983L26.2285 2.83579L27.957 0H30.7708V8.07058H28.0843V4.07036L26.2285 6.93989H26.1819L24.3249 4.07036V8.07058H21.6856V0ZM32.1133 0H34.8116V5.40299H38.6051V8.07058H32.1131V0H32.1133Z" fill="black"/>
<path d="M21.2568 36.6601H27.7931L27.1768 43.5444L21.2566 45.1422V50.6646L32.1385 47.6488L32.2183 46.7519L33.4658 32.7774L33.5953 31.3521H21.2568V36.6601ZM21.2568 25.9035V25.9165H34.0783L34.1847 24.7235L34.4267 22.0324L34.5535 20.6084H21.2568V25.9037V25.9035Z" fill="white"/>
</g>
<defs>
<clipPath id="clip0_215_172">
<rect width="42.55" height="60" fill="white"/>
</clipPath>
</defs>
</svg>
