<svg width="34" height="51" viewBox="0 0 34 51" fill="none" xmlns="http://www.w3.org/2000/svg">
<g clip-path="url(#clip0_220_91)">
<path d="M8.5 51C13.192 51 17 47.192 17 42.5V34H8.5C3.808 34 0 37.808 0 42.5C0 47.192 3.808 51 8.5 51Z" fill="#0ACF83"/>
<path d="M0 25.5C0 20.808 3.808 17 8.5 17H17V34H8.5C3.808 34 0 30.192 0 25.5Z" fill="#A259FF"/>
<path d="M0 8.5C0 3.808 3.808 0 8.5 0H17V17H8.5C3.808 17 0 13.192 0 8.5Z" fill="#F24E1E"/>
<path d="M17 0H25.5C30.192 0 34 3.808 34 8.5C34 13.192 30.192 17 25.5 17H17V0Z" fill="#FF7262"/>
<path d="M34 25.5C34 30.192 30.192 34 25.5 34C20.808 34 17 30.192 17 25.5C17 20.808 20.808 17 25.5 17C30.192 17 34 20.808 34 25.5Z" fill="#1ABCFE"/>
</g>
<defs>
<clipPath id="clip0_220_91">
<rect width="34" height="51" fill="white"/>
</clipPath>
</defs>
</svg>
