<svg width="52" height="50" viewBox="0 0 52 50" fill="none" xmlns="http://www.w3.org/2000/svg">
<g clip-path="url(#clip0_220_97)">
<path d="M42.7042 0H8.50415C3.80973 0 0.00415039 3.80558 0.00415039 8.5V41.42C0.00415039 46.1144 3.80973 49.92 8.50415 49.92H42.7042C47.3986 49.92 51.2042 46.1144 51.2042 41.42V8.5C51.2042 3.80558 47.3986 0 42.7042 0Z" fill="#470137"/>
<path d="M26.9198 13.1281L20.5312 23.6727L27.3662 34.8697C27.4102 34.9481 27.4224 35.0401 27.4006 35.1273C27.39 35.1645 27.3672 35.1737 27.3322 35.1751L27.2934 35.1745L27.2462 35.1733C27.2206 35.1733 27.192 35.1745 27.1602 35.1797H22.2322L22.1354 35.1781C21.8698 35.1711 21.6784 35.1331 21.5618 34.9383C21.1058 34.05 20.6478 33.1627 20.1878 32.2765C19.7763 31.486 19.3536 30.7015 18.9198 29.9231L18.7282 29.5803C18.2093 28.6581 17.6999 27.7307 17.1998 26.7983H17.1654C16.7036 27.721 16.2284 28.637 15.74 29.5459C15.2474 30.4619 14.7608 31.3723 14.2802 32.2765C13.7993 33.1814 13.307 34.0802 12.8034 34.9727C12.7224 35.1547 12.5878 35.1927 12.4004 35.1989L12.3224 35.2001H7.617L7.5966 35.2007L7.5294 35.2067C7.492 35.2089 7.4696 35.2009 7.4624 35.1445C7.44949 35.0607 7.46786 34.9751 7.514 34.9041L14.1428 24.0161L7.6856 13.0941C7.617 13.0029 7.6056 12.9285 7.6512 12.8709C7.67655 12.8415 7.70837 12.8185 7.74416 12.8036C7.77995 12.7886 7.81872 12.7822 7.8574 12.7849H12.7002C12.8058 12.7791 12.9114 12.7967 13.0094 12.8365C13.0914 12.8831 13.162 12.9477 13.2154 13.0255C13.6276 13.9415 14.0856 14.8575 14.5894 15.7731C15.0893 16.6829 15.5988 17.5874 16.1178 18.4865C16.6289 19.3716 17.1044 20.2768 17.5432 21.1999H17.5776C18.0273 20.277 18.491 19.361 18.9686 18.4523C19.4376 17.5593 19.9186 16.6603 20.411 15.7559C20.8972 14.8631 21.3723 13.9643 21.8364 13.0599C21.8628 12.9751 21.91 12.8983 21.9738 12.8365C22.0586 12.7935 22.154 12.7756 22.2486 12.7849H26.748C26.7894 12.7746 26.833 12.778 26.8722 12.7946C26.9115 12.8112 26.9443 12.8401 26.9657 12.8769C26.9872 12.9138 26.996 12.9566 26.991 12.9989C26.986 13.0413 26.9674 13.0808 26.938 13.1117L26.92 13.1285L26.9198 13.1281ZM37.0138 35.6227L36.777 35.6253C35.1961 35.6494 33.6296 35.3209 32.1916 34.6637C30.852 34.0437 29.7321 33.0316 28.9802 31.7613C28.222 30.5021 27.8328 28.9329 27.8132 27.0543L27.8124 26.9013C27.7995 25.3249 28.2024 23.773 28.9804 22.4019C29.759 21.0448 30.8941 19.9267 32.2628 19.1687L32.3806 19.1047C33.8686 18.2803 35.6662 17.8681 37.773 17.8681L37.865 17.8691L37.9702 17.8725L38.0882 17.8777L38.2194 17.8853L38.4398 17.9009L38.6894 17.9209L38.872 17.9369V11.1705C38.872 11.0105 38.9408 10.9301 39.078 10.9301H43.4058C43.4338 10.9261 43.4623 10.9286 43.4891 10.9375C43.516 10.9465 43.5403 10.9615 43.5603 10.9815C43.5803 11.0015 43.5954 11.0259 43.6043 11.0527C43.6133 11.0795 43.6158 11.1081 43.6118 11.1361V31.4351C43.6118 31.7759 43.625 32.1431 43.6514 32.5359L43.7154 33.4269L43.7494 33.9423C43.7536 34.0136 43.7362 34.0846 43.6994 34.1459C43.6626 34.2073 43.6082 34.256 43.5432 34.2859C42.4267 34.7514 41.2638 35.0968 40.0742 35.3161C39.0643 35.5025 38.0406 35.605 37.0138 35.6227V35.6227ZM38.872 31.3663V21.9897C38.6864 21.9394 38.4968 21.9049 38.3054 21.8867C38.0714 21.8631 37.8364 21.8516 37.6012 21.8523C36.7677 21.844 35.9441 22.0323 35.197 22.4019C34.4693 22.7636 33.848 23.308 33.3938 23.9819C32.9404 24.6451 32.7058 25.5111 32.6904 26.5799L32.6896 26.6953C32.6729 27.4439 32.7952 28.1892 33.0502 28.8933C33.2578 29.4607 33.586 29.9763 34.0122 30.4047C34.42 30.7987 34.9138 31.0926 35.4546 31.2633C36.0259 31.4483 36.6229 31.5411 37.2234 31.5383C37.5438 31.5383 37.8414 31.5267 38.1164 31.5037C38.3357 31.4872 38.5531 31.451 38.766 31.3957L38.872 31.3663V31.3663Z" fill="#FF61F6"/>
</g>
<defs>
<clipPath id="clip0_220_97">
<rect width="51.2083" height="50" fill="white"/>
</clipPath>
</defs>
</svg>
