<svg width="55" height="55" viewBox="0 0 55 55" fill="none" xmlns="http://www.w3.org/2000/svg">
<path d="M45.6958 12.8106V42.1439C45.6958 43.1675 45.3979 44.0842 44.8021 44.8939C44.2062 45.6884 43.4041 46.2231 42.3958 46.4981L29.2646 50.2793C29.0812 50.3252 28.875 50.371 28.6458 50.4168H28.1416C27.6375 50.4168 27.1791 50.3481 26.7666 50.2106C26.3541 50.0731 25.934 49.8897 25.5062 49.6606L16.9125 44.8022C16.5916 44.6189 16.3396 44.3821 16.1562 44.0918C15.9729 43.8015 15.8812 43.4731 15.8812 43.1064C15.8812 42.5564 16.0798 42.0904 16.4771 41.7085C16.859 41.3266 17.325 41.1356 17.875 41.1356H29.0125V14.071L20.625 17.0502C19.968 17.2946 19.4333 17.7224 19.0208 18.3335C18.6083 18.9141 18.4021 19.5634 18.4021 20.2814V35.7043C18.4021 36.346 18.2416 36.9265 17.9208 37.446C17.6153 37.9654 17.1798 38.3779 16.6146 38.6835L12.6729 40.8377C12.3062 41.0363 11.9396 41.1356 11.5729 41.1356C10.9465 41.1356 10.4118 40.914 9.96872 40.471C9.52567 40.0279 9.30414 39.4856 9.30414 38.8439V17.1189C9.30414 16.3245 9.51039 15.5835 9.92289 14.896C10.3507 14.1321 10.9083 13.5516 11.5958 13.1543L25.7125 5.1335C26.0333 4.95016 26.3771 4.81266 26.7437 4.721C27.1104 4.62933 27.4771 4.5835 27.8437 4.5835C28.1034 4.5835 28.3402 4.60641 28.5541 4.65225C28.768 4.6828 29.0048 4.73627 29.2646 4.81266L42.3958 8.45641C42.9 8.59391 43.3507 8.80016 43.7479 9.07516C44.1451 9.35016 44.4889 9.67863 44.7791 10.0606C45.0847 10.4578 45.3139 10.8856 45.4666 11.3439C45.6194 11.8175 45.6958 12.3064 45.6958 12.8106ZM42.6708 42.1439V12.8106C42.6708 12.4592 42.5791 12.1536 42.3958 11.8939C42.1666 11.6036 41.884 11.4279 41.5479 11.3668L35.0854 9.57933C34.6118 9.44183 34.1076 9.30433 33.5729 9.16683C33.0687 8.99877 32.5722 8.85363 32.0833 8.73141V46.3147L41.5479 43.5418C41.884 43.4807 42.1666 43.3203 42.3958 43.0606C42.5791 42.8009 42.6708 42.4953 42.6708 42.1439Z" fill="#DC3E15"/>
</svg>
