<svg width="53" height="52" viewBox="0 0 53 52" fill="none" xmlns="http://www.w3.org/2000/svg">
<path d="M3.2583 3.25H48.7583V48.75H3.2583V3.25Z" fill="#F5DE19"/>
<path d="M33.8229 38.7969C34.2106 39.5844 34.8129 40.2463 35.5604 40.7063C36.3079 41.1663 37.1702 41.4057 38.0479 41.3969C39.8192 41.3969 40.9518 40.5113 40.9518 39.2844C40.9518 37.8219 39.7883 37.2986 37.8383 36.4455L36.769 35.9873C33.6815 34.6727 31.634 33.0265 31.634 29.5458C31.634 26.3396 34.0715 23.8973 37.8952 23.8973C39.1329 23.8079 40.3696 24.0849 41.451 24.6938C42.5323 25.3027 43.4105 26.2164 43.9759 27.3212L40.6333 29.458C40.4156 28.9103 40.0365 28.4416 39.5463 28.1143C39.0561 27.7869 38.478 27.6163 37.8887 27.625C37.6315 27.5993 37.3718 27.6274 37.1262 27.7076C36.8805 27.7877 36.6542 27.9182 36.4617 28.0906C36.2693 28.2631 36.1148 28.4737 36.0083 28.7091C35.9017 28.9446 35.8453 29.1996 35.8428 29.458C35.8428 30.7402 36.6374 31.2602 38.472 32.058L39.5413 32.5163C43.1748 34.0747 45.2288 35.6623 45.2288 39.2324C45.2288 43.082 42.2047 45.1913 38.1438 45.1913C36.5615 45.2921 34.9839 44.9329 33.6013 44.1569C32.2187 43.381 31.0902 42.2215 30.3519 40.8184L33.8229 38.7969ZM18.7185 39.1674C19.3897 40.3585 20.0007 41.366 21.4697 41.366C22.8737 41.366 23.7609 40.8168 23.7609 38.6799V24.141H28.0363V38.7368C28.0363 43.1633 25.4363 45.1783 21.6517 45.1783C20.3139 45.2514 18.9853 44.918 17.8405 44.2219C16.6958 43.5259 15.7884 42.4997 15.2378 41.2783L18.7185 39.1674Z" fill="black"/>
</svg>
