<svg width="60" height="60" viewBox="0 0 60 60" fill="none" xmlns="http://www.w3.org/2000/svg">
<path d="M30 34.6387C32.5888 34.6387 34.6875 32.54 34.6875 29.9512C34.6875 27.3623 32.5888 25.2637 30 25.2637C27.4112 25.2637 25.3125 27.3623 25.3125 29.9512C25.3125 32.54 27.4112 34.6387 30 34.6387Z" fill="#00D8FF"/>
<path d="M30 40.6989C24.3659 40.8352 18.7459 40.0757 13.35 38.4489C10.8574 37.6587 8.53263 36.414 6.49313 34.7776C5.71487 34.2186 5.06676 33.4978 4.59327 32.6648C4.11977 31.8317 3.83211 30.9061 3.75 29.9514C3.75 26.852 7.155 23.8145 12.8587 21.827C18.3989 20.0659 24.1874 19.2124 30 19.2995C35.7351 19.2194 41.446 20.0575 46.9162 21.782C49.3168 22.5473 51.5627 23.7319 53.55 25.2808C54.315 25.8137 54.9533 26.5084 55.4199 27.3155C55.8865 28.1226 56.1699 29.0225 56.25 29.9514C56.25 33.1726 52.4438 36.437 46.3125 38.4658C41.0211 40.0396 35.5197 40.7927 30 40.6989V40.6989ZM30 21.542C24.439 21.4677 18.9015 22.2791 13.5956 23.9458C8.34562 25.7776 5.9925 28.2826 5.9925 29.9458C5.9925 31.6858 8.52188 34.4214 14.0756 36.3208C19.2376 37.8692 24.6124 38.59 30 38.4564C35.2808 38.5508 40.5449 37.8363 45.6094 36.3376C51.375 34.427 54 31.6876 54 29.9514C53.9054 29.3556 53.6883 28.7858 53.3623 28.2782C53.0364 27.7705 52.6087 27.336 52.1063 27.002C50.3283 25.6279 48.3219 24.5781 46.1794 23.9008C40.9463 22.2578 35.4843 21.4615 30 21.542V21.542Z" fill="#00D8FF"/>
<path d="M19.35 53.3304C18.4753 53.3505 17.6109 53.1383 16.845 52.7154C14.16 51.1667 13.23 46.7004 14.3569 40.766C15.5993 35.0868 17.7521 29.646 20.7319 24.6542C23.527 19.6462 27.1053 15.1177 31.3313 11.2404C33.1934 9.54296 35.3416 8.18891 37.6763 7.24102C38.5207 6.84528 39.4418 6.64014 40.3744 6.64014C41.3069 6.64014 42.2281 6.84528 43.0725 7.24102C45.8644 8.84977 46.7888 13.7773 45.4856 20.1016C44.2048 25.4727 42.1079 30.6156 39.2681 35.351C36.5714 40.2998 33.1057 44.7889 29.0006 48.6504C27.0708 50.4144 24.8313 51.8059 22.395 52.7548C21.4197 53.1168 20.3902 53.3114 19.35 53.3304V53.3304ZM22.6744 25.7679C19.8321 30.5479 17.7687 35.7499 16.5619 41.1785C15.525 46.6442 16.5206 49.931 17.9681 50.7673C19.4681 51.6354 23.1094 50.8123 27.5306 46.9498C31.4494 43.2503 34.7573 38.9533 37.3313 34.2185C40.0518 29.6914 42.0632 24.7744 43.2956 19.6385C44.5219 13.6854 43.4625 10.0404 41.9588 9.17414C41.3952 8.95819 40.7929 8.86152 40.19 8.89025C39.5871 8.91897 38.9968 9.07246 38.4563 9.34102C36.3782 10.1985 34.4676 11.4159 32.8125 12.9373C28.775 16.6512 25.3569 20.9865 22.6875 25.7791L22.6744 25.7679Z" fill="#00D8FF"/>
<path d="M40.6443 53.3552C38.1037 53.3552 34.8768 51.8177 31.5168 48.9283C27.2169 45.0157 23.578 40.4334 20.7412 35.359C17.7988 30.4359 15.6631 25.0737 14.415 19.4758C13.8737 17.013 13.7734 14.4737 14.1187 11.9758C14.1986 11.0492 14.4807 10.1514 14.9453 9.3457C15.4098 8.53999 16.0455 7.84602 16.8075 7.3127C19.5956 5.69833 24.3262 7.3577 29.1543 11.644C33.1679 15.4356 36.5763 19.8203 39.2606 24.6452C42.2011 29.4534 44.3593 34.6981 45.6543 40.1833C46.2189 42.7365 46.306 45.3722 45.9112 47.9571C45.8173 48.9103 45.5183 49.832 45.0348 50.6589C44.5513 51.4858 43.8947 52.1984 43.11 52.7477C42.3565 53.1653 41.5055 53.375 40.6443 53.3552V53.3552ZM22.6818 34.2302C25.4033 39.0798 28.8793 43.4653 32.9793 47.2221C37.1962 50.8502 40.5412 51.6302 41.9793 50.7846C43.4793 49.9127 44.5856 46.354 43.4456 40.5958C42.1966 35.3588 40.1266 30.3525 37.3125 25.7627C34.7509 21.1448 31.4976 16.9462 27.6656 13.3127C23.1206 9.2777 19.4343 8.37583 17.9325 9.24583C17.4644 9.62623 17.0802 10.0996 16.8043 10.6359C16.5284 11.1723 16.3666 11.7601 16.3293 12.3621C16.0312 14.5897 16.1283 16.8525 16.6162 19.0465C17.8168 24.3998 19.8651 29.527 22.6837 34.234L22.6818 34.2302Z" fill="#00D8FF"/>
</svg>
